<?xml version="1.0" standalone="no"?>
<!DOCTYPE svg PUBLIC "-//W3C//DTD SVG 20010904//EN"
 "http://www.w3.org/TR/2001/REC-SVG-20010904/DTD/svg10.dtd">
<svg version="1.0" xmlns="http://www.w3.org/2000/svg"
 width="672.000000pt" height="346.000000pt" viewBox="0 0 672.000000 346.000000"
 preserveAspectRatio="xMidYMid meet">

<g transform="translate(0.000000,346.000000) scale(0.100000,-0.100000)"
fill="#000000" stroke="none">
<path d="M2727 3368 c-14 -24 -151 -274 -305 -557 l-279 -513 56 -99 c31 -54
58 -98 61 -99 8 0 555 951 553 960 -1 5 -14 84 -29 177 -14 92 -27 169 -29
171 -2 2 -15 -16 -28 -40z"/>
<path d="M2773 3398 c2 -7 15 -86 28 -175 l23 -163 546 0 546 0 17 158 c10 86
17 165 17 175 0 16 -35 17 -591 17 -469 0 -590 -3 -586 -12z"/>
<path d="M3963 3399 c3 -8 -3 -88 -13 -177 l-19 -162 221 -383 c355 -614 334
-579 345 -565 5 7 32 55 59 105 l49 93 -21 37 c-11 21 -150 263 -308 538 -257
446 -332 569 -313 514z"/>
<path d="M710 2263 c0 -5 25 -23 54 -40 29 -18 88 -57 130 -88 l77 -55 594 0
594 0 -53 93 -54 92 -671 3 c-369 1 -671 -1 -671 -5z"/>
<path d="M4627 2181 c-20 -37 -37 -71 -37 -75 0 -10 1190 -12 1190 -1 1 6 30
33 66 60 123 94 183 85 -542 85 l-640 0 -37 -69z"/>
<path d="M697 2233 c-35 -60 -597 -1104 -599 -1113 -2 -9 37 -19 135 -36 129
-21 157 -28 146 -38 -2 -2 -66 6 -142 19 -76 12 -136 19 -135 15 2 -3 136
-237 298 -518 l295 -512 133 0 c73 0 131 3 129 8 -8 14 -392 681 -479 831 -75
130 -88 158 -79 175 5 12 138 241 294 511 283 489 283 490 259 502 -13 7 -73
46 -133 88 -116 79 -115 79 -122 68z m228 -2163 c4 -6 -33 -10 -104 -10 -67 0
-111 4 -111 10 0 6 41 10 104 10 59 0 108 -4 111 -10z"/>
<path d="M5875 2164 c-38 -30 -76 -61 -84 -69 -11 -11 28 -83 234 -441 137
-236 266 -461 289 -500 35 -61 44 -70 61 -64 35 13 225 23 225 12 0 -6 -52
-13 -119 -17 l-120 -7 -67 -117 c-255 -443 -479 -831 -496 -858 l-20 -33 129
0 128 1 293 508 c160 279 292 514 292 521 0 14 -662 1119 -670 1120 -3 0 -36
-25 -75 -56z"/>
</g>
</svg>
